<svg width="481" height="465" viewBox="0 0 481 465" fill="none" xmlns="http://www.w3.org/2000/svg">
<path d="M360 55.4499H24C15.1634 55.4499 8 62.6134 8 71.4499V399.45C8 408.286 15.1634 415.45 24 415.45H360C368.837 415.45 376 408.286 376 399.45V71.4499C376 62.6134 368.837 55.4499 360 55.4499Z" fill="#A2D7FC"/>
<path d="M125.448 464.994C119.778 464.992 114.291 462.982 109.961 459.322C105.631 455.661 102.737 450.585 101.792 444.994C101.476 442.918 101.989 440.801 103.22 439.1C104.451 437.399 106.302 436.25 108.373 435.901C110.444 435.553 112.568 436.032 114.289 437.236C116.009 438.441 117.187 440.273 117.568 442.338C117.742 443.374 118.118 444.367 118.675 445.258C119.232 446.149 119.959 446.921 120.815 447.531C121.671 448.141 122.639 448.577 123.663 448.813C124.687 449.048 125.748 449.08 126.784 448.906L458.16 393.274C460.252 392.921 462.118 391.753 463.348 390.024C464.579 388.296 465.072 386.15 464.72 384.058L410.4 60.5779C410.048 58.486 408.879 56.6198 407.15 55.3896C405.422 54.1594 403.276 53.666 401.184 54.0179C399.091 54.3701 396.944 53.8764 395.215 52.6455C393.485 51.4145 392.316 49.547 391.964 47.4539C391.612 45.3608 392.106 43.2136 393.337 41.4845C394.568 39.7554 396.435 38.5861 398.528 38.2339C404.81 37.1823 411.252 38.6655 416.441 42.358C421.63 46.0505 425.143 51.6507 426.208 57.9299L480.504 381.41C481.546 387.687 480.057 394.121 476.364 399.302C472.67 404.483 467.074 407.988 460.8 409.05L129.432 464.666C128.115 464.885 126.783 464.995 125.448 464.994Z" fill="#1B245A"/>
<path d="M312.84 132.866C307.341 132.853 302.014 130.953 297.748 127.483C293.483 124.013 290.539 119.183 289.408 113.802L281.168 74.6499C280.754 72.5831 281.173 70.4367 282.334 68.677C283.494 66.9174 285.302 65.6867 287.364 65.2525C289.427 64.8183 291.577 65.2156 293.349 66.3581C295.12 67.5005 296.369 69.2959 296.824 71.3539L305.064 110.498C305.271 111.535 305.682 112.52 306.273 113.397C306.863 114.274 307.622 115.026 308.505 115.608C309.387 116.19 310.377 116.591 311.415 116.788C312.454 116.986 313.522 116.975 314.557 116.757C315.591 116.539 316.572 116.119 317.444 115.519C318.315 114.92 319.058 114.154 319.631 113.265C320.204 112.377 320.596 111.383 320.783 110.343C320.969 109.302 320.948 108.234 320.72 107.202L304.24 28.9299C303.833 26.8489 303.017 24.8694 301.839 23.1065C300.66 21.3437 299.143 19.8326 297.376 18.6612C295.608 17.4898 293.626 16.6813 291.543 16.2829C289.461 15.8845 287.319 15.904 285.244 16.3403C283.169 16.7766 281.202 17.6211 279.456 18.8245C277.71 20.0279 276.221 21.5664 275.075 23.3504C273.929 25.1345 273.149 27.1285 272.78 29.2167C272.412 31.3048 272.462 33.4453 272.928 35.5139C273.366 37.59 272.961 39.7552 271.803 41.533C270.645 43.3109 268.828 44.5558 266.752 44.9939C264.676 45.4321 262.511 45.0275 260.733 43.8693C258.955 42.7111 257.71 40.894 257.272 38.8179C256.372 34.6935 256.298 30.4318 257.053 26.2785C257.808 22.1251 259.377 18.1621 261.67 14.6178C263.963 11.0735 266.934 8.01792 270.413 5.62707C273.892 3.23622 277.81 1.55737 281.941 0.687213C286.072 -0.182942 290.334 -0.227196 294.482 0.556998C298.63 1.34119 302.581 2.93834 306.109 5.25643C309.637 7.57452 312.672 10.5677 315.038 14.0637C317.404 17.5596 319.055 21.4891 319.896 25.6259L336.376 103.914C337.114 107.413 337.06 111.033 336.219 114.51C335.378 117.986 333.771 121.23 331.515 124.005C329.259 126.78 326.411 129.016 323.18 130.549C319.949 132.082 316.416 132.874 312.84 132.866Z" fill="#1B245A"/>
<path d="M360 423.45H24C17.6348 423.45 11.5303 420.921 7.02944 416.42C2.52856 411.92 0 405.815 0 399.45V71.4499C0 65.0847 2.52856 58.9802 7.02944 54.4794C11.5303 49.9785 17.6348 47.4499 24 47.4499H360C366.365 47.4499 372.47 49.9785 376.971 54.4794C381.471 58.9802 384 65.0847 384 71.4499V399.45C384 405.815 381.471 411.92 376.971 416.42C372.47 420.921 366.365 423.45 360 423.45ZM24 63.4499C21.8783 63.4499 19.8434 64.2928 18.3431 65.7931C16.8429 67.2934 16 69.3282 16 71.4499V399.45C16 401.572 16.8429 403.607 18.3431 405.107C19.8434 406.607 21.8783 407.45 24 407.45H360C362.122 407.45 364.157 406.607 365.657 405.107C367.157 403.607 368 401.572 368 399.45V71.4499C368 69.3282 367.157 67.2934 365.657 65.7931C364.157 64.2928 362.122 63.4499 360 63.4499H24Z" fill="#1B245A"/>
</svg>
